<svg id="Wot_Logotype" data-name="Wot Logotype" xmlns="http://www.w3.org/2000/svg" viewBox="0 0 600 176.19"><path id="White" d="M332.8,0a88.1,88.1,0,1,0,88.1,88.09A88.19,88.19,0,0,0,332.8,0Zm0,141.64a53.55,53.55,0,1,1,53.55-53.55A53.61,53.61,0,0,1,332.8,141.64ZM218.8,19v92.13a74.66,74.66,0,0,1-7.58,30.75c-10.51,21-30.31,32.58-55.76,32.58-19,0-34.87-6.46-46.06-18.49-11.19,12-27.05,18.49-46.06,18.49-25.45,0-45.25-11.57-55.76-32.58A74.48,74.48,0,0,1,0,111.13V19a17.28,17.28,0,0,1,34.55,0v92a40.28,40.28,0,0,0,4.33,16.19c2.92,5.46,8.64,12.72,24.46,12.72,12.35,0,20.25-4.29,24.85-13.49a41,41,0,0,0,3.94-15.3V51.82a17.27,17.27,0,1,1,34.54,0V111A40.47,40.47,0,0,0,131,127.2c2.93,5.46,8.65,12.72,24.46,12.72,12.36,0,20.26-4.29,24.86-13.49a40.85,40.85,0,0,0,3.93-15.3V19a17.28,17.28,0,0,1,34.55,0ZM600,19.78c-.41,9.32-8.46,16.49-17.8,16.49H531a.06.06,0,0,0-.05.06V157.19a17.27,17.27,0,0,1-18.06,17.25c-9.32-.41-16.49-8.46-16.49-17.79V36.33a.06.06,0,0,0-.06-.06H444.54a17.28,17.28,0,0,1-17.26-18.05c.41-9.32,8.47-16.49,17.8-16.49H582.73A17.27,17.27,0,0,1,600,19.78Z" transform="translate(0)" style="fill:#fff"/></svg>