<svg xmlns="http://www.w3.org/2000/svg" viewBox="0 0 600 600"><g id="Logo_Standard" data-name="Logo Standard"><path id="Yellow" d="M300,0C134.58,0,0,134.58,0,300S134.58,600,300,600,600,465.42,600,300,465.42,0,300,0ZM261.21,457.33h0a25.85,25.85,0,0,1-44,0L125.06,307.61a25.85,25.85,0,0,1,22-39.39h.09a25.86,25.86,0,0,1,22,12.31l92,149.73A25.86,25.86,0,0,1,261.21,457.33Zm38.67-79-22.07-35.91a25.86,25.86,0,0,1,0-27.07l47.41-77.14c13-21.23,14.45-31.13,14.45-34.4,0-20.19-18.15-37.25-39.65-37.25-16.1,0-30.33,9.57-36.45,22.86A25.38,25.38,0,0,1,240.4,203.8H240a25.86,25.86,0,0,1-22.81-38c15.31-28.67,47.1-48.89,82.84-48.89,50.16,0,92.52,39.81,92.52,86.93,0,17.78-8.75,36.72-15.5,49Zm175.06-70.71L382.83,457.34a25.85,25.85,0,0,1-44,0h0a25.86,25.86,0,0,1,0-27.07l92-149.73a25.86,25.86,0,0,1,22-12.31h.09A25.85,25.85,0,0,1,474.94,307.61Z" style="fill:#fc0"/></g></svg>