<svg id="Wot_Logo_Full_Wide" data-name="Wot Logo [Full] Wide" xmlns="http://www.w3.org/2000/svg" xmlns:xlink="http://www.w3.org/1999/xlink" viewBox="0 0 600 208.54"><defs><linearGradient id="Wot" x1="128.81" y1="-67.66" x2="452.47" y2="255.99" gradientUnits="userSpaceOnUse"><stop offset="0" stop-color="#fc0"/><stop offset="1" stop-color="#f7931e"/></linearGradient></defs><path id="Gradient" d="M104.27,0A104.27,104.27,0,1,0,208.54,104.27,104.39,104.39,0,0,0,104.27,0ZM90.79,159h0a9,9,0,0,1-15.31,0l-32-52a9,9,0,0,1,7.65-13.7h0a9,9,0,0,1,7.66,4.28l32,52.05A9,9,0,0,1,90.79,159Zm13.44-27.46L96.56,119a9,9,0,0,1,0-9.41L113,82.79c4.53-7.38,5-10.82,5-12,0-7-6.31-13-13.78-13a14,14,0,0,0-12.67,7.94,8.82,8.82,0,0,1-8.06,5h-.14a9,9,0,0,1-7.93-13.23,32.87,32.87,0,0,1,28.8-17c17.43,0,32.16,13.84,32.16,30.22,0,6.18-3.05,12.76-5.39,17Zm60.84-24.57-32,52a9,9,0,0,1-15.31,0h0a9,9,0,0,1,0-9.4l32-52.05a9,9,0,0,1,7.66-4.28h0A9,9,0,0,1,165.07,106.92Zm278.6-54.19a51.54,51.54,0,1,0,51.54,51.54A51.6,51.6,0,0,0,443.67,52.73Zm0,82.87A31.33,31.33,0,1,1,475,104.27,31.36,31.36,0,0,1,443.67,135.6ZM377,63.85v53.9a43.55,43.55,0,0,1-4.43,18c-6.15,12.29-17.73,19.06-32.62,19.06C328.79,154.8,319.51,151,313,144c-6.55,7-15.82,10.82-27,10.82-14.89,0-26.47-6.77-32.62-19.06a43.65,43.65,0,0,1-4.44-18V63.85a10.11,10.11,0,0,1,20.22,0v53.83a23.61,23.61,0,0,0,2.53,9.47c1.71,3.19,5.06,7.44,14.31,7.44,7.23,0,11.85-2.51,14.54-7.89a23.79,23.79,0,0,0,2.3-9V83.05a10.11,10.11,0,1,1,20.22,0v34.63a23.61,23.61,0,0,0,2.53,9.47c1.71,3.19,5.06,7.44,14.31,7.44,7.23,0,11.85-2.51,14.54-7.89a23.79,23.79,0,0,0,2.3-9V63.85a10.11,10.11,0,1,1,20.21,0Zm223,.45A10.31,10.31,0,0,1,589.58,74h-30s0,0,0,0v70.7A10.11,10.11,0,0,1,549,154.79a10.32,10.32,0,0,1-9.65-10.41V74s0,0,0,0H509.05A10.1,10.1,0,0,1,499,63.39a10.31,10.31,0,0,1,10.41-9.65h80.53A10.1,10.1,0,0,1,600,64.3Z" style="fill:url(#Wot)"/></svg>