<svg id="Wot_Logo_Full_Tall" data-name="Wot Logo [Full] Tall" xmlns="http://www.w3.org/2000/svg" viewBox="0 0 600 600"><path id="Yellow" d="M300,0C201.73,0,121.78,80,121.78,178.22S201.73,356.44,300,356.44s178.22-79.95,178.22-178.22S398.27,0,300,0ZM277,271.69h0a15.35,15.35,0,0,1-26.16,0l-54.72-88.95a15.36,15.36,0,0,1,13.08-23.4h.06a15.34,15.34,0,0,1,13.08,7.32l54.66,89A15.36,15.36,0,0,1,277,271.69Zm23-46.94-13.11-21.33a15.36,15.36,0,0,1,0-16.08L315,141.51c7.75-12.61,8.59-18.49,8.59-20.44,0-12-10.79-22.13-23.56-22.13a24,24,0,0,0-21.65,13.58,15.08,15.08,0,0,1-13.77,8.55h-.24a15.36,15.36,0,0,1-13.55-22.6c9.1-17,28-29,49.21-29,29.8,0,55,23.65,55,51.64,0,10.57-5.2,21.82-9.21,29.09Zm104-42-54.72,88.95a15.35,15.35,0,0,1-26.16,0h0a15.36,15.36,0,0,1,0-16.08l54.66-89a15.34,15.34,0,0,1,13.08-7.32h.06A15.36,15.36,0,0,1,403.93,182.74ZM332.8,423.81a88.1,88.1,0,1,0,88.1,88.1A88.2,88.2,0,0,0,332.8,423.81Zm0,141.64a53.55,53.55,0,1,1,53.55-53.54A53.61,53.61,0,0,1,332.8,565.45Zm-114-122.64v92.13a74.63,74.63,0,0,1-7.58,30.75c-10.51,21-30.31,32.58-55.76,32.58-19,0-34.87-6.46-46.06-18.49-11.19,12-27.05,18.49-46.06,18.49-25.45,0-45.25-11.57-55.76-32.58A74.45,74.45,0,0,1,0,534.94V442.81a17.28,17.28,0,0,1,34.55,0v92A40.28,40.28,0,0,0,38.88,551c2.92,5.46,8.64,12.72,24.46,12.72,12.35,0,20.25-4.29,24.85-13.49a41,41,0,0,0,3.94-15.3V475.63a17.27,17.27,0,0,1,34.54,0v59.19A40.47,40.47,0,0,0,131,551c2.93,5.46,8.65,12.72,24.46,12.72,12.36,0,20.26-4.29,24.86-13.49a40.85,40.85,0,0,0,3.93-15.3V442.81a17.28,17.28,0,0,1,34.55,0Zm381.18.78c-.41,9.33-8.46,16.49-17.8,16.49H531a.06.06,0,0,0-.05.06V581a17.28,17.28,0,0,1-18.06,17.26c-9.32-.42-16.49-8.47-16.49-17.8V460.14a.06.06,0,0,0-.06-.06H444.54A17.28,17.28,0,0,1,427.28,442c.41-9.32,8.47-16.49,17.8-16.49H582.73A17.27,17.27,0,0,1,600,443.59Z" transform="translate(0)" style="fill:#fc0"/></svg>