<svg id="Logo_Standard_Standalone" data-name="Logo Standard Standalone" xmlns="http://www.w3.org/2000/svg" viewBox="0 0 357.63 352.77"><path id="Yellow" d="M147.08,268.22h.09a25.86,25.86,0,0,1,22,12.31l92,149.73a25.86,25.86,0,0,1,0,27.07h0a25.85,25.85,0,0,1-44,0L125.06,307.61A25.85,25.85,0,0,1,147.08,268.22ZM430.8,280.53l-92,149.73a25.86,25.86,0,0,0,0,27.07h0a25.85,25.85,0,0,0,44,0l92.11-149.73a25.85,25.85,0,0,0-22-39.39h-.09A25.86,25.86,0,0,0,430.8,280.53ZM392.54,203.8c0-47.12-42.36-86.93-92.52-86.93-35.74,0-67.53,20.22-82.84,48.89a25.86,25.86,0,0,0,22.81,38h.41a25.38,25.38,0,0,0,23.17-14.39c6.12-13.29,20.35-22.86,36.45-22.86,21.5,0,39.65,17.06,39.65,37.25,0,3.27-1.4,13.17-14.45,34.4l-47.41,77.14a25.86,25.86,0,0,0,0,27.07l22.07,35.91L377,252.76C383.79,240.52,392.54,221.58,392.54,203.8Z" transform="translate(-121.19 -116.87)" style="fill:#fc0"/></svg>